<svg width="32" height="32" viewBox="0 0 32 32" fill="none" xmlns="http://www.w3.org/2000/svg">
<g clip-path="url(#clip0_81_320)">
<path fill-rule="evenodd" clip-rule="evenodd" d="M16.1437 31.3272C24.7647 31.3272 31.7534 24.3384 31.7534 15.7174C31.7534 7.0964 24.7647 0.107666 16.1437 0.107666C7.52263 0.107666 0.53392 7.0964 0.53392 15.7174C0.53392 24.3384 7.52263 31.3272 16.1437 31.3272ZM21.0134 7.37934C21.2504 6.53736 20.4333 6.03947 19.6871 6.57112L9.27001 13.9922C8.46072 14.5688 8.58802 15.7174 9.46123 15.7174H12.2043V15.6962H17.5505L13.1944 17.2332L11.274 24.0555C11.037 24.8975 11.854 25.3954 12.6003 24.8637L23.0174 17.4427C23.8267 16.8661 23.6993 15.7174 22.8262 15.7174H18.6663L21.0134 7.37934Z" fill="#5F38F5"/>
</g>
<defs>
<clipPath id="clip0_81_320">
<rect width="32" height="32" fill="white"/>
</clipPath>
</defs>
</svg>
