<svg width="21" height="20" viewBox="0 0 21 20" fill="none" xmlns="http://www.w3.org/2000/svg">
<path d="M10.5001 2.70831C5.84175 2.70831 2.16675 5.05831 2.16675 8.09165L2.16675 11.9083C2.16675 14.925 5.82508 17.2916 10.5001 17.2916C15.1751 17.2916 18.8334 14.925 18.8334 11.9083V8.09998C18.8334 5.07498 15.1417 2.70831 10.5001 2.70831ZM17.5834 11.875C17.5834 14.1166 14.3417 16.0416 10.5001 16.0416C6.65841 16.0416 3.41675 14.15 3.41675 11.875L3.41675 10.9166C4.90008 12.475 7.58341 13.4166 10.5001 13.4166C13.4167 13.4166 16.1084 12.4333 17.5834 10.9166V11.875Z" fill="white"/>
</svg>
